<svg width="24" height="24" viewBox="0 0 24 24" fill="none" xmlns="http://www.w3.org/2000/svg">
<path d="M9.99957 16.6667C9.91195 16.6691 9.82483 16.6525 9.74426 16.618C9.66369 16.5834 9.59157 16.5318 9.53291 16.4667C9.46974 16.4065 9.41945 16.3341 9.38509 16.2539C9.35073 16.1736 9.33301 16.0873 9.33301 16C9.33301 15.9127 9.35073 15.8264 9.38509 15.7462C9.41945 15.666 9.46974 15.5936 9.53291 15.5333L13.0662 12L9.53291 8.46668C9.4112 8.34249 9.34342 8.17528 9.3443 8.00139C9.34518 7.82751 9.41464 7.66099 9.5376 7.53804C9.66056 7.41508 9.82707 7.34561 10.001 7.34473C10.1748 7.34386 10.342 7.41164 10.4662 7.53335L14.4662 11.5333C14.5294 11.5936 14.5797 11.666 14.6141 11.7462C14.6484 11.8264 14.6661 11.9127 14.6661 12C14.6661 12.0873 14.6484 12.1736 14.6141 12.2539C14.5797 12.3341 14.5294 12.4065 14.4662 12.4667L10.4662 16.4667C10.4076 16.5318 10.3355 16.5834 10.2549 16.618C10.1743 16.6525 10.0872 16.6691 9.99957 16.6667Z" fill="white" stroke="white"/>
<circle cx="12" cy="12" r="11" stroke="white" stroke-width="2"/>
</svg>
