<svg width="158" height="123" viewBox="0 0 158 123" fill="none" xmlns="http://www.w3.org/2000/svg">
<rect x="12.9004" y="9.20001" width="144.767" height="113.233" rx="9.31667" fill="#260661"/>
<rect y="0.996094" width="146.917" height="112.121" rx="10.0522" fill="#44D62C"/>
<g clip-path="url(#clip0_1287_5719)">
<path d="M18.6172 53.7533V21.0575C18.6172 20.7042 18.9051 20.4198 19.258 20.4198H33.506C36.1062 20.4198 38.2474 20.674 39.9339 21.1824C41.6183 21.6909 42.9368 22.3782 43.8894 23.2421C44.842 24.106 45.5175 25.0561 45.9223 26.0903C46.325 27.1244 46.5264 28.1844 46.5264 29.2681C46.5264 30.5564 46.2319 31.6832 45.6474 32.6505C45.0607 33.6179 44.357 34.415 43.5322 35.042C42.8264 35.5784 42.1531 35.9727 41.5144 36.2248C41.4126 36.2657 41.4148 36.3971 41.5187 36.4294C42.3501 36.6837 43.268 37.1038 44.2726 37.6898C45.4071 38.3534 46.3965 39.2539 47.2387 40.3915C48.0809 41.5312 48.5009 42.9509 48.5009 44.6508C48.5009 48.0182 47.2279 50.4829 44.684 52.047C42.1379 53.6111 38.4119 54.3932 33.5038 54.3932H19.2645C18.9095 54.3932 18.6172 54.1023 18.6172 53.749M26.8399 34.0703H32.9972C34.1317 34.0703 35.1471 33.8075 36.0456 33.2818C36.9419 32.7561 37.3922 31.8469 37.3922 30.5564C37.3922 29.0979 36.9267 28.1111 35.9914 27.6027C35.0583 27.0942 34.0602 26.84 32.9972 26.84H26.8399V34.0725V34.0703ZM26.8399 47.9773H32.9236C33.6922 47.9773 34.5062 47.8932 35.3679 47.723C36.2274 47.5528 36.9614 47.1801 37.5654 46.6027C38.1694 46.0253 38.4725 45.1248 38.4725 43.9032C38.4725 42.7484 38.1694 41.891 37.5654 41.3308C36.9614 40.7707 36.2274 40.3979 35.3679 40.2105C34.5062 40.0252 33.6922 39.9304 32.9236 39.9304H26.8399V47.9794V47.9773Z" fill="#EFEFE6"/>
<path d="M67.087 55.2619C64.5279 55.2619 62.1637 54.8202 59.9987 53.9369C57.8315 53.0535 55.9545 51.8061 54.3675 50.1924C52.7806 48.5788 51.5443 46.685 50.6567 44.5112C49.769 42.3395 49.3252 39.961 49.3252 37.38C49.3252 34.7989 49.769 32.4226 50.6567 30.2488C51.5443 28.0771 52.7806 26.1919 54.3675 24.5955C55.9545 22.9991 57.8315 21.7602 59.9987 20.8769C62.1659 19.9936 64.5279 19.5519 67.087 19.5519C69.646 19.5519 72.0102 19.9936 74.1774 20.8769C76.3446 21.7602 78.2281 22.9991 79.8346 24.5955C81.4389 26.1919 82.6751 28.0771 83.5454 30.2488C84.4157 32.4226 84.8509 34.7989 84.8509 37.38C84.8509 39.961 84.4157 42.3395 83.5454 44.5112C82.6751 46.685 81.4367 48.5788 79.8346 50.1924C78.2303 51.8061 76.3446 53.0535 74.1774 53.9369C72.0102 54.8202 69.646 55.2619 67.087 55.2619ZM67.087 46.8057C68.8969 46.8057 70.4233 46.3812 71.6681 45.5324C72.913 44.6835 73.8613 43.546 74.5086 42.1197C75.156 40.6935 75.4807 39.1143 75.4807 37.3821C75.4807 35.6499 75.156 34.0707 74.5086 32.6445C73.8591 31.2183 72.913 30.0807 71.6681 29.2319C70.4211 28.383 68.8948 27.9586 67.087 27.9586C65.2792 27.9586 63.8026 28.383 62.5578 29.2319C61.3107 30.0807 60.3559 31.2183 59.6913 32.6445C59.0245 34.0707 58.6932 35.6499 58.6932 37.3821C58.6932 39.1143 59.0245 40.6935 59.6913 42.1197C60.3559 43.546 61.3107 44.6835 62.5578 45.5324C63.8026 46.3812 65.3138 46.8057 67.087 46.8057Z" fill="#EFEFE6"/>
<path d="M85.4833 53.4194L95.8645 37.3774C96.0031 37.1641 95.9988 36.8905 95.858 36.6794L85.5201 21.4087C85.2343 20.9864 85.5374 20.4198 86.0484 20.4198H93.6692C93.8879 20.4198 94.0892 20.5296 94.2061 20.7128L101.987 32.8832C102.039 32.9651 102.158 32.9651 102.212 32.8832L109.993 20.7128C110.11 20.5296 110.314 20.4198 110.53 20.4198H118.151C118.662 20.4198 118.965 20.9864 118.679 21.4087L108.342 36.6815C108.199 36.8926 108.196 37.1663 108.335 37.3796L118.716 53.4172C118.989 53.8395 118.686 54.3954 118.179 54.3954H110.539C110.316 54.3954 110.11 54.279 109.993 54.0894L102.212 41.3416C102.16 41.2576 102.037 41.2576 101.985 41.3416L94.204 54.0916C94.0892 54.2812 93.8814 54.3975 93.6584 54.3975H86.018C85.5136 54.3975 85.2083 53.8417 85.4811 53.4194" fill="#EFEFE6"/>
<path d="M18.5576 93.051V60.2215C18.5576 59.8682 18.8456 59.5817 19.2006 59.5817H25.8386C26.0529 59.5817 26.2499 59.6915 26.3647 59.8704L38.0796 78.2542C38.1445 78.3555 38.3025 78.3103 38.3025 78.1896V60.2215C38.3025 59.8682 38.5905 59.5817 38.9456 59.5817H45.9472C46.3023 59.5817 46.5902 59.8682 46.5902 60.2215V93.051C46.5902 93.4043 46.3023 93.6908 45.9472 93.6908H39.7899C39.5712 93.6908 39.3677 93.5788 39.2487 93.3957L27.064 74.4516C26.999 74.3504 26.841 74.3956 26.841 74.5163V93.051C26.841 93.4043 26.553 93.6908 26.198 93.6908H19.2006C18.8456 93.6908 18.5576 93.4043 18.5576 93.051Z" fill="#EFEFE6"/>
<path d="M92.7127 93.1975L85.0334 60.3638C84.9403 59.9652 85.2456 59.5817 85.6569 59.5817H93.49C93.7974 59.5817 94.0615 59.7993 94.12 60.101L98.1447 81.193C98.1707 81.333 98.3699 81.3352 98.4024 81.1973L103.012 60.896C103.077 60.6051 103.336 60.4004 103.635 60.4004H110.286C110.585 60.4004 110.845 60.6051 110.91 60.896L115.564 81.1994C115.597 81.3395 115.798 81.333 115.822 81.1908L119.269 60.1139C119.319 59.8058 119.587 59.5796 119.901 59.5796H127.721C128.132 59.5796 128.438 59.9631 128.345 60.3617L120.728 93.1954C120.661 93.4841 120.403 93.6888 120.104 93.6888H112.306C112.007 93.6888 111.75 93.4841 111.683 93.1954L106.922 72.6614C106.889 72.5256 106.697 72.5256 106.666 72.6614L101.905 93.1954C101.838 93.4841 101.578 93.6888 101.282 93.6888H93.3406C93.0418 93.6888 92.7842 93.4841 92.7171 93.1954" fill="#EFEFE6"/>
<path d="M67.2754 94.5589C64.7055 94.5589 62.3327 94.1151 60.159 93.2296C57.9832 92.3441 56.0996 91.0903 54.5061 89.4701C52.9127 87.85 51.6721 85.9497 50.7801 83.7673C49.8882 81.587 49.4443 79.1999 49.4443 76.6081C49.4443 74.0163 49.8882 71.6313 50.7801 69.4489C51.67 67.2686 52.9127 65.3748 54.5061 63.7719C56.0996 62.169 57.9832 60.9259 60.159 60.0382C62.3327 59.1528 64.7055 58.709 67.2754 58.709C69.8453 58.709 72.216 59.1528 74.3918 60.0382C76.5676 60.9259 78.4599 62.169 80.0706 63.7719C81.6792 65.3748 82.922 67.2664 83.7966 69.4489C84.6691 71.6313 85.1065 74.0184 85.1065 76.6081C85.1065 79.1977 84.6691 81.587 83.7966 83.7673C82.9241 85.9497 81.6814 87.85 80.0706 89.4701C78.4599 91.0903 76.5676 92.342 74.3918 93.2296C72.216 94.1151 69.8431 94.5589 67.2754 94.5589ZM67.2754 86.0704C69.0918 86.0704 70.6247 85.6438 71.8739 84.7928C73.1231 83.9418 74.0735 82.7978 74.7252 81.3672C75.3747 79.9345 75.7016 78.351 75.7016 76.6102C75.7016 74.8694 75.3747 73.2859 74.7252 71.8554C74.0735 70.4248 73.1231 69.283 71.8739 68.4298C70.6225 67.5788 69.0897 67.1522 67.2754 67.1522C65.4611 67.1522 63.9781 67.5788 62.7289 68.4298C61.4775 69.283 60.5184 70.4248 59.8516 71.8554C59.1826 73.2881 58.8492 74.8737 58.8492 76.6102C58.8492 78.3467 59.1826 79.9345 59.8516 81.3672C60.5205 82.7978 61.4775 83.9418 62.7289 84.7928C63.9781 85.646 65.4936 86.0704 67.2754 86.0704Z" fill="#EFEFE6"/>
</g>
<defs>
<clipPath id="clip0_1287_5719">
<rect width="109.801" height="75.0048" fill="white" transform="translate(18.5576 19.5539)"/>
</clipPath>
</defs>
</svg>
