<svg width="330" height="183" viewBox="0 0 330 183" fill="none" xmlns="http://www.w3.org/2000/svg">
<path d="M0.882401 79.3333V0.901335H18.736V79.3333H0.882401ZM60.3345 80.6749C50.7713 80.6749 43.1345 78.0261 37.4241 72.7285C31.7825 67.3621 28.9617 60.1381 28.9617 51.0565C28.9617 41.9749 31.8169 34.7509 37.5273 29.3845C43.2377 24.0181 50.8401 21.3349 60.3345 21.3349C69.8289 21.3349 77.3969 24.0181 83.0385 29.3845C88.7489 34.7509 91.6041 41.9749 91.6041 51.0565C91.6041 60.1381 88.7489 67.3621 83.0385 72.7285C77.3969 78.0261 69.8289 80.6749 60.3345 80.6749ZM50.8401 61.0669C53.2481 63.4749 56.4129 64.6789 60.3345 64.6789C64.2561 64.6789 67.3865 63.4405 69.7257 60.9637C72.0649 58.4869 73.2345 55.1845 73.2345 51.0565C73.2345 46.9285 72.0305 43.6261 69.6225 41.1493C67.2833 38.6037 64.1873 37.3309 60.3345 37.3309C56.4129 37.3309 53.2481 38.6037 50.8401 41.1493C48.5009 43.6261 47.3313 46.9285 47.3313 51.0565C47.3313 55.2533 48.5009 58.5901 50.8401 61.0669ZM129.883 80.4685C120.182 80.4685 112.614 77.8197 107.179 72.5221C101.813 67.2245 99.1296 60.0693 99.1296 51.0565C99.1296 42.3189 101.813 35.2325 107.179 29.7973C112.614 24.2933 120.045 21.5413 129.47 21.5413C141.029 21.5413 149.491 25.4629 154.858 33.3061L142.577 44.0389C139.894 39.6357 135.903 37.4341 130.606 37.4341C126.615 37.4341 123.382 38.6725 120.905 41.1493C118.428 43.5573 117.19 46.7565 117.19 50.7469C117.19 54.9437 118.428 58.3149 120.905 60.8605C123.382 63.3373 126.65 64.5757 130.709 64.5757C136.213 64.5757 140.341 62.4085 143.093 58.0741L155.27 68.8069C152.656 72.4533 149.182 75.3085 144.847 77.3725C140.513 79.4365 135.525 80.4685 129.883 80.4685ZM202.613 79.3333L189.61 57.2485L181.87 64.9885V79.3333H164.12V0.901335H181.87V44.5549L200.859 22.7797H222.325L202.407 45.1741L222.531 79.3333H202.613ZM283.775 51.0565C283.775 53.4645 283.74 55.1501 283.671 56.1133H242.907C244.421 62.9245 249.031 66.3301 256.736 66.3301C263.066 66.3301 267.985 64.0941 271.494 59.6221L282.433 68.8069C276.86 76.6501 267.779 80.5717 255.188 80.5717C245.694 80.5717 238.298 77.9229 233 72.6253C227.703 67.3277 225.054 60.1037 225.054 50.9533C225.054 42.0781 227.806 34.9229 233.31 29.4877C238.883 23.9837 246.003 21.2317 254.672 21.2317C264.098 21.2317 271.287 23.9493 276.241 29.3845C281.263 34.8197 283.775 42.0437 283.775 51.0565ZM254.672 35.3701C248.067 35.3701 244.111 38.7069 242.804 45.3805H266.54C266.334 42.6973 265.233 40.3581 263.238 38.3629C261.311 36.3677 258.456 35.3701 254.672 35.3701ZM293.276 79.3333V22.7797H310.304V29.3845C314.914 24.0181 320.624 21.3349 327.435 21.3349C328.123 21.3349 328.949 21.4037 329.912 21.5413V40.6333C327.367 40.1517 325.371 39.9109 323.927 39.9109C320.005 39.9109 316.875 41.0117 314.535 43.2133C312.196 45.3461 311.027 48.7173 311.027 53.3269V79.3333H293.276Z" fill="#F7941D"/>
<path d="M3.22733 182.892V111.354H8.64533V118.377C13.3944 113.093 20.0499 110.451 28.6117 110.451C36.5046 110.451 42.9259 112.959 47.8757 117.976C52.8923 122.926 55.4007 129.648 55.4007 138.143C55.4007 146.705 52.9258 153.527 47.976 158.611C43.0931 163.628 36.538 166.136 28.3107 166.136C19.8827 166.136 13.3276 163.394 8.64533 157.909V182.892H3.22733ZM27.9093 160.818C34.4644 160.818 39.7152 158.778 43.6617 154.698C47.675 150.618 49.6817 145.099 49.6817 138.143C49.6817 131.253 47.6416 125.802 43.5613 121.789C39.548 117.775 34.3641 115.769 28.0097 115.769C24.2639 115.769 20.6519 116.571 17.1737 118.177C13.6954 119.782 10.8527 122.157 8.64533 125.3V151.186C10.7189 154.397 13.4948 156.805 16.973 158.41C20.4512 160.016 24.0967 160.818 27.9093 160.818ZM75.7096 101.923C74.84 102.859 73.7363 103.327 72.3986 103.327C71.0608 103.327 69.9237 102.859 68.9872 101.923C68.0508 100.986 67.5826 99.8826 67.5826 98.6117C67.5826 97.2739 68.0508 96.1702 68.9872 95.3007C69.9237 94.3642 71.0608 93.896 72.3986 93.896C73.7363 93.896 74.84 94.3642 75.7096 95.3007C76.646 96.1702 77.1142 97.2739 77.1142 98.6117C77.1142 99.8826 76.646 100.986 75.7096 101.923ZM69.4889 165.333V111.354H75.1076V165.333H69.4889ZM117.519 166.136C108.823 166.136 101.9 163.594 96.7498 158.511C91.5993 153.427 89.0241 146.671 89.0241 138.243C89.0241 129.882 91.6997 123.16 97.0508 118.076C102.469 112.993 109.459 110.451 118.02 110.451C122.301 110.451 126.348 111.321 130.161 113.06C133.973 114.732 137.05 117.006 139.391 119.882L135.478 123.695C133.539 121.287 130.997 119.381 127.853 117.976C124.709 116.504 121.432 115.769 118.02 115.769C111.131 115.769 105.512 117.842 101.164 121.989C96.8835 126.07 94.7431 131.488 94.7431 138.243C94.7431 145.066 96.8167 150.551 100.964 154.698C105.178 158.778 110.696 160.818 117.519 160.818C121.265 160.818 124.776 160.083 128.054 158.611C131.331 157.139 133.973 155.166 135.98 152.691L139.893 156.504C137.485 159.447 134.274 161.788 130.261 163.527C126.248 165.266 122 166.136 117.519 166.136ZM195.749 165.333L176.987 135.835L158.626 154.297V165.333H153.208V89.682H158.626V146.972L193.241 111.354H200.766L181 131.621L202.471 165.333H195.749ZM234.147 166.136C226.923 166.136 221.538 164.263 217.993 160.517C214.448 156.705 212.676 150.718 212.676 142.558V111.354H218.094V142.156C218.094 148.645 219.498 153.394 222.308 156.404C225.117 159.414 229.364 160.919 235.05 160.919C242.073 160.919 248.461 157.976 254.214 152.089V111.354H259.632V165.333H254.214V158.009C248.194 163.427 241.505 166.136 234.147 166.136ZM276.224 182.892V111.354H281.642V118.377C286.391 113.093 293.047 110.451 301.608 110.451C309.501 110.451 315.923 112.959 320.872 117.976C325.889 122.926 328.398 129.648 328.398 138.143C328.398 146.705 325.923 153.527 320.973 158.611C316.09 163.628 309.535 166.136 301.307 166.136C292.879 166.136 286.324 163.394 281.642 157.909V182.892H276.224ZM300.906 160.818C307.461 160.818 312.712 158.778 316.658 154.698C320.672 150.618 322.678 145.099 322.678 138.143C322.678 131.253 320.638 125.802 316.558 121.789C312.545 117.775 307.361 115.769 301.006 115.769C297.261 115.769 293.649 116.571 290.17 118.177C286.692 119.782 283.849 122.157 281.642 125.3V151.186C283.716 154.397 286.492 156.805 289.97 158.41C293.448 160.016 297.093 160.818 300.906 160.818Z" fill="#260661"/>
</svg>
