<svg width="1201" height="1165" viewBox="0 0 1201 1165" fill="none" xmlns="http://www.w3.org/2000/svg">
<path d="M1197.5 690L1199.49 690.176L1197.5 690ZM555.815 1156.91C556.824 1156.46 557.277 1155.28 556.826 1154.27L549.492 1137.83C549.041 1136.82 547.859 1136.37 546.85 1136.82C545.841 1137.27 545.389 1138.45 545.839 1139.46L552.359 1154.07L537.747 1160.59C536.739 1161.04 536.286 1162.22 536.736 1163.23C537.186 1164.24 538.369 1164.69 539.377 1164.24L555.815 1156.91ZM397 948.344L396.032 946.595L395.913 946.66L395.804 946.741L397 948.344ZM0 6.49396e-07C9.77516e-06 30.1362 19.8106 57.5695 53.4891 83.1706C87.2132 108.806 135.246 132.92 192.601 156.365C307.309 203.256 459.927 247.715 611.301 296.317C762.778 344.952 913.038 397.743 1023.39 461.338C1133.88 525.015 1203.5 599.015 1195.51 689.825L1199.49 690.176C1207.71 596.785 1136.01 521.623 1025.38 457.872C914.619 394.038 763.976 341.136 612.524 292.508C460.969 243.848 308.631 199.475 194.115 152.663C136.857 129.257 89.2116 105.301 55.9098 79.9862C22.5623 54.6368 4.00001 28.2388 4 -6.49396e-07L0 6.49396e-07ZM1195.51 689.825C1190.36 748.251 1150.48 787.006 1089.78 813.927C1029.04 840.863 947.889 855.737 861.151 866.523C817.805 871.913 773.118 876.276 728.942 880.622C684.776 884.967 641.118 889.294 599.878 894.609C517.48 905.228 444.404 919.823 396.032 946.595L397.968 950.094C445.596 923.734 517.965 909.199 600.389 898.576C641.56 893.27 685.158 888.948 729.333 884.603C773.498 880.258 818.238 875.89 861.645 870.492C948.415 859.703 1030.08 844.778 1091.4 817.583C1152.76 790.372 1194.17 750.661 1199.49 690.176L1195.51 689.825ZM395.804 946.741C379.372 958.998 371.022 974.648 370.47 992.216C369.92 1009.7 377.098 1028.81 391.133 1048.1C419.195 1086.69 475.086 1126.62 554.285 1156.95L555.715 1153.21C476.914 1123.04 421.805 1083.48 394.367 1045.75C380.652 1026.89 373.955 1008.64 374.468 992.341C374.978 976.124 382.628 961.559 398.196 949.948L395.804 946.741Z" fill="#FF882D"/>
</svg>
